<?xml version="1.0" encoding="utf-8"?>
<!-- Generator: Adobe Illustrator 23.0.3, SVG Export Plug-In . SVG Version: 6.00 Build 0)  -->
<svg version="1.1" id="Layer_3" xmlns="http://www.w3.org/2000/svg" xmlns:xlink="http://www.w3.org/1999/xlink" x="0px" y="0px"
	 viewBox="0 0 530 500" style="enable-background:new 0 0 530 500;" xml:space="preserve">
<style type="text/css">
	.st0{fill:#F2F2F2;}
</style>
<g>
	<path class="st0" d="M214.6,66.3c6.5-3.6,13.7-8.6,20.2-12.2L219,45.4l28.1-7.2V26.6l29.5,5.8L291,22.3l13.7,8.6l30.3-1.4L332.1,41
		l33.1,4.3l-18,10.1L367.4,67l-35.3-0.7l-15.1,20.2l-28.1-13.7l-34.6,8.6l-7.2-17.3L214.6,66.3z"/>
	<polygon class="st0" points="213.2,70.6 242.7,72 255,91.5 286.7,81.4 318.4,94.4 334.2,72.7 365.9,70.6 344.3,193.8 325.6,190.2 
		270.1,215.4 269.4,228.4 266.5,229.1 257.2,157 224.7,146.2 	"/>
	<path class="st0" d="M375.3,110.2c0,0,150.6,120.7,5.8,273l15.1-177.6L358,195.6L375.3,110.2z"/>
	<path class="st0" d="M208.2,140.8l-9.4-59.1c0,0-55.8,24.2-83.7,68.8c-35.1,56-52.8,150.8,32.5,233.1l-34.5-214.8l69.2-37.5
		L208.2,140.8z"/>
	<polygon class="st0" points="136.2,170.7 185.2,144.8 247.7,162.1 196.8,190.9 	"/>
	<polygon class="st0" points="201.6,196.7 251.5,166.9 257.3,233.2 240,228.4 211.2,238.9 	"/>
	<path class="st0" d="M130.5,176.5l62.4,20.2l7.7,46.1l-30.7,13.4l27.9,196c0,0-19.2-18.3-30.7-41.3L130.5,176.5z"/>
	<polygon class="st0" points="183.3,261 240,237 282.2,248.5 240,272.5 	"/>
	<path class="st0" d="M183.3,266.8l50,10.6l10.6,198.8c0,0-31.7-8.6-38.4-17.3L183.3,266.8z"/>
	<path class="st0" d="M244.8,279.3l41.3-22.1l-1.9,218.1c0,0-8.6,3.8-30.7,1.9L244.8,279.3z"/>
	<path class="st0" d="M278.4,224.5l52.8,17.3l-9.6,216.1c0,0-23.1,15.4-33.6,17.3l7.7-225.7l-16.3-7.7L278.4,224.5z"/>
	<path class="st0" d="M341.8,238.9l36.5-23.1c0,0-10.6,163.3-16.3,179.6s-14.4,43.2-30.7,53.8L341.8,238.9z"/>
	<polygon class="st0" points="283.2,218.8 327.4,198.6 375.4,210.1 336,235.1 	"/>
</g>
</svg>
